<?xml version="1.0" encoding="UTF-8" standalone="no"?>
<svg
   xmlns:dc="http://purl.org/dc/elements/1.1/"
   xmlns:cc="http://creativecommons.org/ns#"
   xmlns:rdf="http://www.w3.org/1999/02/22-rdf-syntax-ns#"
   xmlns:svg="http://www.w3.org/2000/svg"
   xmlns="http://www.w3.org/2000/svg"
   xmlns:sodipodi="http://sodipodi.sourceforge.net/DTD/sodipodi-0.dtd"
   xmlns:inkscape="http://www.inkscape.org/namespaces/inkscape"
   id="svg1"
   sodipodi:docname="RotateArrow.svg"
   viewBox="0 0 60 60"
   sodipodi:version="0.32"
   _SVGFile__filename="oldscale/actions/14_rotate.svg"
   version="1.0"
   y="0"
   x="0"
   inkscape:version="0.92.4 (5da689c313, 2019-01-14)">
  <defs
     id="defs877" />
  <sodipodi:namedview
     id="base"
     bordercolor="#666666"
     inkscape:pageshadow="2"
     inkscape:window-y="37"
     pagecolor="#ffffff"
     inkscape:window-height="861"
     inkscape:zoom="8.3508926"
     inkscape:window-x="0"
     borderopacity="1.0"
     inkscape:current-layer="svg1"
     inkscape:cx="36.001756"
     inkscape:cy="26.576817"
     inkscape:window-width="1596"
     inkscape:pageopacity="0.0000000"
     showgrid="false"
     inkscape:window-maximized="0" />
  <g
     id="g1089"
     transform="matrix(-1 0 0 1 60 0)"
     style="fill:#fffff1;stroke-width:0;stroke-miterlimit:4;stroke-dasharray:none;stroke:#000000;stroke-opacity:0;fill-opacity:1">
    <path
       id="path1725"
       sodipodi:nodetypes="cccccccccccc"
       style="stroke-linejoin:round;color:#000000;stroke:#000000;stroke-linecap:round;stroke-width:0;fill:#fffff1;stroke-miterlimit:4;stroke-dasharray:none;stroke-opacity:0;fill-opacity:1"
       d="m25.063 4.6882l-15.618 15.475 15.618 15.438v-9.622c0.379-0.05 0.715-0.216 1.113-0.216 7 0 12.674 5.711 12.674 12.71 0 3.314-1.329 6.287-3.411 8.545l8.294 8.294c4.201-4.38 6.822-10.291 6.822-16.839 0-13.464-10.915-24.414-24.379-24.414-0.379 0-0.739 0.086-1.113 0.108v-9.4788z" />
    <path
       id="path1091"
       sodipodi:nodetypes="cccccccccccc"
       style="stroke-linejoin:round;fill-rule:evenodd;color:#000000;stroke:#000000;stroke-linecap:round;stroke-width:0;fill:#fffff1;stroke-miterlimit:4;stroke-dasharray:none;stroke-opacity:0;fill-opacity:1"
       d="m25.063 4.6882l-15.618 15.475 15.618 15.438v-9.622c0.379-0.05 0.715-0.216 1.113-0.216 7 0 12.674 5.711 12.674 12.71 0 3.314-1.329 6.287-3.411 8.545l8.294 8.294c4.201-4.38 6.822-10.291 6.822-16.839 0-13.464-10.915-24.414-24.379-24.414-0.379 0-0.739 0.086-1.113 0.108v-9.4788z" />
  </g>
  <metadata
     id="metadata874">
    <rdf:RDF>
      <cc:Work>
        <dc:format>image/svg+xml</dc:format>
        <dc:type
           rdf:resource="http://purl.org/dc/dcmitype/StillImage" />
        <cc:license
           rdf:resource="http://creativecommons.org/licenses/publicdomain/" />
        <dc:publisher>
          <cc:Agent
             rdf:about="http://openclipart.org/">
            <dc:title>Openclipart</dc:title>
          </cc:Agent>
        </dc:publisher>
      </cc:Work>
      <cc:License
         rdf:about="http://creativecommons.org/licenses/publicdomain/">
        <cc:permits
           rdf:resource="http://creativecommons.org/ns#Reproduction" />
        <cc:permits
           rdf:resource="http://creativecommons.org/ns#Distribution" />
        <cc:permits
           rdf:resource="http://creativecommons.org/ns#DerivativeWorks" />
      </cc:License>
    </rdf:RDF>
  </metadata>
</svg>
