<svg xmlns="http://www.w3.org/2000/svg" xmlns:xlink="http://www.w3.org/1999/xlink" id="Layer_1" width="512" height="512" x="0" y="0" enable-background="new 0 0 512 512" version="1.1" viewBox="0 0 512 512" xml:space="preserve"><g><path fill="#1D1D1B" d="M254.84,246.538c-50.803-50.796-50.789-133.443,0-184.238c50.794-50.795,133.43-50.795,184.237,0.007 c50.782,50.781,50.796,133.436,0,184.231C388.283,297.319,305.634,297.319,254.84,246.538z M419.231,82.153 c-39.858-39.851-104.688-39.851-144.546-0.006c-39.844,39.857-39.844,104.688,0,144.545c39.844,39.843,104.688,39.843,144.546,0 C459.075,186.834,459.075,121.997,419.231,82.153z"/><path fill="#1D1D1B" d="M76.399,479.585c-10.958,10.95-28.736,10.95-39.693-0.014l-14.885-14.887 c-10.966-10.964-10.966-28.74-0.007-39.706L187.892,258.9c10.964-10.95,28.742-10.95,39.707,0.015l14.878,14.885 c10.964,10.95,10.964,28.742,0.007,39.707L76.399,479.585z"/><path fill="#1D1D1B" d="M359.622,201.801c0,7.757-6.276,14.035-14.034,14.035l0,0c-7.757,0-14.035-6.278-14.035-14.035v-89.475 c0-7.75,6.278-14.035,14.035-14.035l0,0c7.758,0,14.034,6.284,14.034,14.035V201.801z"/><path fill="#1D1D1B" d="M300.852,171.099c-7.758,0-14.035-6.277-14.035-14.035l0,0c0-7.758,6.277-14.036,14.035-14.036h89.474 c7.758,0,14.035,6.278,14.035,14.036l0,0c0,7.757-6.277,14.035-14.035,14.035H300.852z"/></g></svg>